# xmcd
#
# Track frame offsets:
#	150
#	16327
#	32503
#	46356
#	60832
#	75735
#	89684
#	104985
#	121975
#	132530
#	142987
#	159510
#
# Disc length: 2355 seconds
#
# Revision: 1
# Processed by: cddbd v1.5.1PL0 Copyright (c) Steve Scherf et al.
# Submitted via: audiograbber 1.83.01
#
DISCID=9e09310c
DTITLE=Elaina Lozinski, Stefan Lozinski, Andrian Lozinski - Fiddlers 3
DYEAR=1900
DGENRE=Fiddle
TTITLE0=Whiskey Before Breakfast, Flowers Of Edinburgh, Fingal's Cave
TTITLE1=Maple Sugar
TTITLE2=Biddy Of Sligo, Life On The Ocean Wave, The Peeler Ran Away
TTITLE3=Julie Delaney, Joe Moroze, Irish Reel
TTITLE4=She Beg She More, Little Lindsay
TTITLE5=100 Pipers, Irish Washerwoman, Cock Of The North
TTITLE6=Ste. Anne's Reel, Big John McNeil
TTITLE7=Fiddler's Polka, Reel De Limoilou, Joys Of Quebec
TTITLE8=Tam Balalaika
TTITLE9=Blackberry Blossom
TTITLE10=Mason's Apron, Fisher's Hornpipe, Mrs. McLeod's Reel
TTITLE11=Orange Blossom Special
EXTD=
EXTT0=
EXTT1=
EXTT2=
EXTT3=
EXTT4=
EXTT5=
EXTT6=
EXTT7=
EXTT8=
EXTT9=
EXTT10=
EXTT11=
PLAYORDER=
